<?xml version="1.0" encoding="UTF-8" standalone="no"?>
<svg
   height="16px"
   viewBox="0 0 16 16"
   width="16px"
   version="1.1"
   id="svg4"
   sodipodi:docname="apply-dark-symbolic.svg"
   inkscape:version="1.1.2 (0a00cf5339, 2022-02-04, custom)"
   xmlns:inkscape="http://www.inkscape.org/namespaces/inkscape"
   xmlns:sodipodi="http://sodipodi.sourceforge.net/DTD/sodipodi-0.dtd"
   xmlns="http://www.w3.org/2000/svg"
   xmlns:svg="http://www.w3.org/2000/svg">
  <defs
     id="defs8" />
  <sodipodi:namedview
     id="namedview6"
     pagecolor="#505050"
     bordercolor="#eeeeee"
     borderopacity="1"
     inkscape:pageshadow="0"
     inkscape:pageopacity="0"
     inkscape:pagecheckerboard="0"
     showgrid="false"
     inkscape:snap-page="true"
     inkscape:snap-bbox="true"
     inkscape:bbox-nodes="true"
     inkscape:zoom="54.5625"
     inkscape:cx="12.893471"
     inkscape:cy="7.6975945"
     inkscape:window-width="2560"
     inkscape:window-height="1371"
     inkscape:window-x="0"
     inkscape:window-y="32"
     inkscape:window-maximized="1"
     inkscape:current-layer="svg4" />
  <path
     d="m 13.753906 4.660156 c 0.175782 -0.199218 0.261719 -0.460937 0.246094 -0.726562 c -0.019531 -0.265625 -0.140625 -0.511719 -0.339844 -0.6875 c -0.199218 -0.175782 -0.460937 -0.261719 -0.726562 -0.246094 c -0.265625 0.019531 -0.511719 0.140625 -0.6875 0.339844 l -6.296875 7.195312 l -2.242188 -2.242187 c -0.390625 -0.390625 -1.023437 -0.390625 -1.414062 0 c -0.1875 0.1875 -0.292969 0.441406 -0.292969 0.707031 s 0.105469 0.519531 0.292969 0.707031 l 3 3 c 0.195312 0.195313 0.464843 0.304688 0.738281 0.292969 c 0.277344 -0.007812 0.539062 -0.132812 0.722656 -0.339844 z m 0 0"
     fill="#2e3436"
     id="path2" />
  <path
     d="m 12.060306,7.1119569 c 2.040163,0.3510984 3.529957,2.1208201 3.52996,4.1894591 0,2.348561 -1.902571,4.251132 -4.251131,4.251132 C 10.311942,15.550146 9.3226999,15.177725 8.5493353,14.501624 10.905006,13.894318 12.55137,11.771129 12.55374,9.3371587 12.551367,8.5685379 12.382936,7.8094082 12.060302,7.1119579 Z m 0,0"
     fill="#2e3436"
     id="path825"
     style="stroke-width:0.607304" />
</svg>
